<?xml version="1.0" encoding="UTF-8"?>
<svg width="22px" height="20px" viewBox="0 0 22 20" version="1.1" xmlns="http://www.w3.org/2000/svg" xmlns:xlink="http://www.w3.org/1999/xlink">
    <!-- Generator: Sketch 48.2 (47327) - http://www.bohemiancoding.com/sketch -->
    <title>header-projects-icon</title>
    <desc>Created with Sketch.</desc>
    <defs></defs>
    <g id="Page-1" stroke="none" stroke-width="1" fill="none" fill-rule="evenodd">
        <g id="header-projects-icon" fill="#85C353" fill-rule="nonzero">
            <path d="M20.1229188,0.0705673759 L1.87708125,0.0705673759 C0.84033125,0.0705673759 0,0.93751773 0,2.00702128 L0,13.6256028 C0,14.6950355 0.84033125,15.5620567 1.87708125,15.5620567 L9.1980625,15.5620567 L9.1980625,17.3138298 L7.7169125,17.3138298 C7.01669375,17.3138298 6.44923125,17.8992908 6.44923125,18.6216312 C6.44923125,19.3439007 7.0167625,19.9294326 7.7169125,19.9294326 L14.2830875,19.9294326 C14.983375,19.9294326 15.5507687,19.3439007 15.5507687,18.6216312 C15.5507687,17.8992908 14.9833062,17.3138298 14.2830875,17.3138298 L12.8019375,17.3138298 L12.8019375,15.5620567 L20.1229188,15.5620567 C21.1596687,15.5620567 22,14.6950355 22,13.6256028 L22,2.00702128 C22,0.93751773 21.1596687,0.0705673759 20.1229188,0.0705673759 Z M19.82255,13.3157447 L2.17745,13.3157447 L2.17745,2.31680851 L19.82255,2.31680851 L19.82255,13.3157447 Z" id="Shape"></path>
            <g id="Group" transform="translate(6.600000, 4.184397)">
                <path d="M2.41553125,5.81553191 C2.30635625,5.81553191 2.19690625,5.77794326 2.10656875,5.70049645 L0.24145,4.1035461 C0.13055625,4.00851064 0.06648125,3.86787234 0.06648125,3.71929078 C0.06648125,3.57085106 0.13055625,3.43007092 0.24145,3.3351773 L2.10656875,1.73822695 C2.3122,1.56212766 2.61724375,1.59141844 2.78801875,1.8035461 C2.95879375,2.01574468 2.93046875,2.33056738 2.72476875,2.50659574 L1.3083125,3.71929078 L2.72476875,4.93219858 C2.93046875,5.10829787 2.95879375,5.42304965 2.78801875,5.63531915 C2.69225,5.7541844 2.5543375,5.81553191 2.41553125,5.81553191 Z" id="Shape"></path>
                <path d="M6.38460625,5.81553191 C6.24573125,5.81553191 6.10775,5.7541844 6.01198125,5.63524823 C5.841275,5.42297872 5.86953125,5.10822695 6.07523125,4.93212766 L7.49161875,3.71921986 L6.07523125,2.50652482 C5.86953125,2.33042553 5.841275,2.01560284 6.01198125,1.80347518 C6.1826875,1.59134752 6.48786875,1.56205674 6.6935,1.73815603 L8.55848125,3.33510638 C8.66944375,3.43 8.73351875,3.57078014 8.73351875,3.71921986 C8.73351875,3.86780142 8.66944375,4.00843972 8.55848125,4.10347518 L6.6935,5.70042553 C6.60309375,5.77787234 6.4934375,5.81553191 6.38460625,5.81553191 Z" id="Shape"></path>
                <path d="M3.5112,7.38624113 C3.46665,7.38624113 3.42134375,7.37985816 3.37638125,7.3664539 C3.11966875,7.28978723 2.9717875,7.01304965 3.046175,6.74801418 L4.82398125,0.412978723 C4.89836875,0.148156028 5.16663125,-0.00432624113 5.42355,0.0721985816 C5.6802625,0.149007092 5.82814375,0.425744681 5.75389375,0.690780142 L3.97595,7.0258156 C3.9144875,7.24432624 3.72123125,7.38624113 3.5112,7.38624113 Z" id="Shape"></path>
            </g>
        </g>
    </g>
</svg>