<?xml version="1.0" encoding="UTF-8"?>
<svg width="24px" height="20px" viewBox="0 0 24 20" version="1.1" xmlns="http://www.w3.org/2000/svg" xmlns:xlink="http://www.w3.org/1999/xlink">
    <!-- Generator: Sketch 48.2 (47327) - http://www.bohemiancoding.com/sketch -->
    <title>header-volunteers-icon</title>
    <desc>Created with Sketch.</desc>
    <defs></defs>
    <g id="Page-1" stroke="none" stroke-width="1" fill="none" fill-rule="evenodd">
        <g id="header-volunteers-icon" fill="#85C353" fill-rule="nonzero">
            <path d="M14.3274074,3.50647059 C15.4251852,4.18970588 16.194963,5.34588235 16.3351111,6.68794118 C16.7828148,6.89558824 17.2797037,7.015 17.8065185,7.015 C19.7297778,7.015 21.2885926,5.46764706 21.2885926,3.55882353 C21.2885926,1.64970588 19.7297778,0.102352941 17.8065185,0.102352941 C15.9016296,0.102941176 14.3564444,1.62264706 14.3274074,3.50647059 Z M12.0462222,10.5835294 C13.9694815,10.5835294 15.5282963,9.03588235 15.5282963,7.12705882 C15.5282963,5.21823529 13.9691852,3.67088235 12.0462222,3.67088235 C10.1232593,3.67088235 8.56355556,5.21852941 8.56355556,7.12735294 C8.56355556,9.03617647 10.1232593,10.5835294 12.0462222,10.5835294 Z M13.5232593,10.8191176 L10.5685926,10.8191176 C8.11022222,10.8191176 6.11022222,12.8047059 6.11022222,15.245 L6.11022222,18.8317647 L6.11940741,18.8879412 L6.3682963,18.9652941 C8.71437037,19.6929412 10.7525926,19.9355882 12.4302222,19.9355882 C15.706963,19.9355882 17.6062222,19.0082353 17.7232593,18.9491176 L17.9558519,18.8323529 L17.9807407,18.8323529 L17.9807407,15.245 C17.9816296,12.8047059 15.9816296,10.8191176 13.5232593,10.8191176 Z M19.2841481,7.25088235 L16.3522963,7.25088235 C16.3205926,8.41529412 15.8198519,9.46382353 15.0278519,10.2179412 C17.213037,10.8629412 18.8118519,12.8744118 18.8118519,15.2502941 L18.8118519,16.3555882 C21.7066667,16.2502941 23.3748148,15.4358824 23.4847407,15.3811765 L23.7173333,15.2641176 L23.7422222,15.2641176 L23.7422222,11.6761765 C23.7422222,9.23617647 21.7422222,7.25088235 19.2841481,7.25088235 Z M5.9362963,7.01558824 C6.61748148,7.01558824 7.25125926,6.81823529 7.78814815,6.48205882 C7.95881481,5.37705882 8.55555556,4.41147059 9.408,3.75382353 C9.41155556,3.68911765 9.41777778,3.625 9.41777778,3.55970588 C9.41777778,1.65058824 7.85866667,0.103235294 5.9362963,0.103235294 C4.01274074,0.103235294 2.45422222,1.65058824 2.45422222,3.55970588 C2.45422222,5.46794118 4.01274074,7.01558824 5.9362963,7.01558824 Z M9.06340741,10.2179412 C8.27525926,9.46764706 7.7762963,8.42470588 7.73985185,7.26735294 C7.63111111,7.25941176 7.52355556,7.25088235 7.41274074,7.25088235 L4.45837037,7.25088235 C2,7.25088235 0,9.23617647 0,11.6761765 L0,15.2635294 L0.00918518519,15.3188235 L0.258074074,15.3967647 C2.14014815,15.98 3.81985185,16.2488235 5.27881481,16.3335294 L5.27881481,15.2502941 C5.27940741,12.8744118 6.87762963,10.8635294 9.06340741,10.2179412 Z" id="Shape"></path>
        </g>
    </g>
</svg>