<?xml version="1.0" encoding="UTF-8"?>
<svg width="34px" height="20px" viewBox="0 0 34 20" version="1.1" xmlns="http://www.w3.org/2000/svg" xmlns:xlink="http://www.w3.org/1999/xlink">
    <!-- Generator: Sketch 48.2 (47327) - http://www.bohemiancoding.com/sketch -->
    <title>Group</title>
    <desc>Created with Sketch.</desc>
    <defs></defs>
    <g id="Page-1" stroke="none" stroke-width="1" fill="none" fill-rule="evenodd">
        <g id="Group" fill="#2F3435" fill-rule="nonzero">
            <g id="if_settings_1167993">
                <path d="M19.3838596,12.5335593 L17.5545614,11.2215254 C17.5591228,11.1947458 17.5624561,11.1677966 17.5668421,11.1408475 C17.5687719,11.1298305 17.5701754,11.1186441 17.5719298,11.1077966 C17.5898246,10.9933898 17.6049123,10.8791525 17.6170175,10.7647458 C17.6177193,10.7586441 17.6182456,10.7528814 17.6189474,10.7467797 C17.6314035,10.6274576 17.6408772,10.5079661 17.6470175,10.3884746 C17.6475439,10.3833898 17.6477193,10.3779661 17.6478947,10.3728814 C17.6538596,10.2545763 17.657193,10.1362712 17.6573684,10.0179661 C17.6573684,10.0120339 17.6577193,10.0061017 17.6577193,10.0001695 C17.6577193,9.99355932 17.6573684,9.98694915 17.6573684,9.98033898 C17.6573684,9.95457627 17.6578947,9.92847458 17.6575439,9.90271186 C17.6573684,9.8979661 17.6575439,9.89322034 17.6575439,9.88830508 C17.6566667,9.83677966 17.654386,9.78559322 17.6524561,9.7340678 C17.6510526,9.70220339 17.6494737,9.67067797 17.6478947,9.63898305 C17.644386,9.5759322 17.6419298,9.51288136 17.6370175,9.45 C17.6363158,9.44355932 17.6354386,9.43694915 17.6350877,9.43050847 C17.6335088,9.4120339 17.6315789,9.39338983 17.6303509,9.37508475 C17.6273684,9.34169492 17.6233333,9.30830508 17.62,9.27491525 C17.6191228,9.26762712 17.6184211,9.26033898 17.6177193,9.25322034 C17.617193,9.24915254 17.6168421,9.24474576 17.6163158,9.24067797 C17.614386,9.22389831 17.6129825,9.20694915 17.6112281,9.19016949 C17.6087719,9.16932203 17.6075439,9.14847458 17.6049123,9.12779661 C17.6035088,9.11694915 17.6017544,9.10627119 17.6007018,9.09559322 C17.5991228,9.08389831 17.5970175,9.07186441 17.5954386,9.06016949 C17.584386,8.97423729 17.5719298,8.88864407 17.5575439,8.80355932 C17.5563158,8.79610169 17.5557895,8.78864407 17.5545614,8.78118644 L19.3863158,7.46728814 C19.8210526,7.22491525 19.9698246,6.68813559 19.7189474,6.26830508 L18.2047368,3.73457627 C17.9538596,3.31474576 17.3980702,3.17101695 16.9636842,3.41338983 L14.8696491,4.28915254 C14.8580702,4.27983051 14.8454386,4.27186441 14.8338596,4.26288136 C14.8284211,4.25864407 14.8231579,4.25440678 14.8177193,4.25016949 C14.7907018,4.22898305 14.762807,4.20864407 14.7352632,4.18779661 C14.7052632,4.16491525 14.6754386,4.14237288 14.6452632,4.12033898 C14.6205263,4.10220339 14.595614,4.08457627 14.5708772,4.06677966 C14.5594737,4.05830508 14.5475439,4.05 14.5359649,4.04169492 C14.515614,4.02728814 14.4957895,4.01220339 14.4752632,3.9979661 C14.4640351,3.99 14.452807,3.98220339 14.4414035,3.97423729 C14.4129825,3.95474576 14.3842105,3.9359322 14.3554386,3.91677966 C14.3482456,3.9120339 14.3410526,3.90694915 14.3336842,3.90220339 C14.3212281,3.89389831 14.3085965,3.88559322 14.2961404,3.87745763 C14.2542105,3.84983051 14.2121053,3.82271186 14.1696491,3.7959322 C14.1649123,3.79305085 14.16,3.79016949 14.1552632,3.78711864 C14.0857895,3.74372881 14.0159649,3.70101695 13.9450877,3.65983051 C13.9270175,3.64932203 13.9089474,3.63949153 13.8907018,3.62915254 C13.7384211,3.54220339 13.5833333,3.45983051 13.4247368,3.38322034 C13.4215789,3.38169492 13.4187719,3.38033898 13.4154386,3.37898305 C13.21,3.27983051 12.9991228,3.18966102 12.7835088,3.10813559 C12.7775439,3.1059322 12.7715789,3.10372881 12.765614,3.10135593 C12.7380702,3.09101695 12.7107018,3.07983051 12.6831579,3.06966102 L12.4212281,0.879491525 C12.4214035,0.394745763 12.0147368,0.00169491525 11.512807,0.00169491525 L8.48508772,0.00169491525 C7.98333333,0.00169491525 7.57666667,0.394576271 7.57666667,0.879491525 L7.31473684,3.06966102 C7.30245614,3.0740678 7.29070175,3.07915254 7.27842105,3.08355932 C7.26421053,3.08881356 7.24982456,3.09440678 7.23561404,3.1 C7.15192982,3.13135593 7.06912281,3.16372881 6.98701754,3.19779661 C6.9722807,3.20372881 6.95754386,3.21033898 6.94298246,3.21644068 C6.86859649,3.24779661 6.7945614,3.28 6.72122807,3.31338983 C6.71350877,3.31694915 6.70578947,3.32067797 6.69807018,3.32423729 C6.68842105,3.32864407 6.67877193,3.33288136 6.66912281,3.33728814 C6.6422807,3.34983051 6.61561404,3.36271186 6.58894737,3.37559322 C6.52736842,3.40525424 6.46649123,3.43576271 6.40596491,3.46711864 C6.36210526,3.48966102 6.31789474,3.51186441 6.27421053,3.53508475 C6.24666667,3.55 6.21964912,3.5659322 6.1922807,3.58101695 C6.19017544,3.5820339 6.18807018,3.58338983 6.18596491,3.58457627 C6.18087719,3.58745763 6.1754386,3.58949153 6.17052632,3.59237288 C6.16157895,3.59728814 6.15333333,3.60305085 6.1445614,3.60779661 C6.0454386,3.66338983 5.9477193,3.72118644 5.85122807,3.78118644 C5.84017544,3.7879661 5.82929825,3.79474576 5.81842105,3.80169492 C5.80736842,3.80864407 5.79596491,3.81559322 5.78473684,3.82254237 C5.78157895,3.82474576 5.77824561,3.82644068 5.77526316,3.82847458 C5.69280702,3.88118644 5.61157895,3.93559322 5.53105263,3.99135593 C5.51982456,3.99915254 5.50842105,4.00694915 5.49719298,4.01491525 C5.40719298,4.0779661 5.31842105,4.14322034 5.23105263,4.21016949 C5.21596491,4.22169492 5.20070175,4.23338983 5.18578947,4.24508475 C5.16666667,4.26016949 5.14701754,4.27423729 5.12807018,4.28949153 L3.03684211,3.41491525 C2.6022807,3.17254237 2.04649123,3.31644068 1.79561404,3.73627119 L0.281052632,6.26949153 C0.03,6.68966102 0.179122807,7.22644068 0.613508772,7.46881356 L2.44315789,8.78101695 C2.43947368,8.80220339 2.43684211,8.82355932 2.43333333,8.84474576 C2.42947368,8.86898305 2.42578947,8.89305085 2.4222807,8.91728814 C2.40701754,9.0179661 2.39350877,9.11847458 2.38245614,9.21898305 C2.38035088,9.23881356 2.37842105,9.25847458 2.37631579,9.27847458 C2.36719298,9.36847458 2.35947368,9.45864407 2.35385965,9.54864407 C2.35350877,9.55559322 2.35315789,9.56271186 2.35280702,9.56966102 C2.3522807,9.57728814 2.35210526,9.58491525 2.35157895,9.59254237 C2.35035088,9.61237288 2.34947368,9.63237288 2.34842105,9.65237288 C2.34350877,9.75491525 2.34087719,9.85762712 2.34052632,9.96 C2.34035088,9.97440678 2.33929825,9.98830508 2.33929825,10.0027119 C2.33929825,10.0183051 2.34017544,10.0340678 2.34017544,10.049661 C2.34017544,10.0610169 2.34,10.0725424 2.34017544,10.0838983 C2.34017544,10.0962712 2.33982456,10.1086441 2.34017544,10.1211864 C2.34087719,10.1630508 2.34280702,10.2050847 2.34438596,10.2469492 C2.34614035,10.3013559 2.34912281,10.3555932 2.35210526,10.409661 C2.35473684,10.4552542 2.35666667,10.500678 2.36017544,10.5461017 C2.36070175,10.5525424 2.36122807,10.5591525 2.36157895,10.5655932 C2.36333333,10.5881356 2.3654386,10.610678 2.36736842,10.6328814 C2.36982456,10.6618644 2.37333333,10.690678 2.37614035,10.7194915 C2.38263158,10.7847458 2.38912281,10.8498305 2.39736842,10.9144068 C2.39736842,10.9152542 2.3977193,10.9162712 2.3977193,10.9171186 C2.41,11.0135593 2.42421053,11.1094915 2.44052632,11.2049153 C2.44140351,11.210339 2.44175439,11.2159322 2.44280702,11.2216949 L0.613684211,12.5338983 C0.178947368,12.7762712 0.0301754386,13.3130508 0.28122807,13.7327119 L1.79526316,16.2664407 C2.04614035,16.6864407 2.60192982,16.8301695 3.03631579,16.5877966 L5.12719298,15.7138983 C5.14157895,15.7254237 5.15684211,15.7350847 5.17122807,15.7462712 C5.17368421,15.7484746 5.17649123,15.75 5.17894737,15.7518644 C5.17894737,15.7522034 5.17929825,15.7522034 5.17929825,15.7523729 C5.20175439,15.77 5.22491228,15.7869492 5.2477193,15.8044068 C5.28350877,15.8316949 5.31929825,15.8589831 5.35561404,15.8855932 C5.37666667,15.9011864 5.39789474,15.9161017 5.41912281,15.9315254 C5.44701754,15.9515254 5.47473684,15.9718644 5.50298246,15.9916949 C5.50614035,15.9938983 5.50894737,15.9959322 5.51192982,15.9983051 C5.52526316,16.0076271 5.53824561,16.0169492 5.55175439,16.0261017 C5.58421053,16.0484746 5.61736842,16.07 5.65017544,16.0916949 C5.65298246,16.0938983 5.65596491,16.0955932 5.65877193,16.0972881 C5.67175439,16.1061017 5.6845614,16.1147458 5.69754386,16.1230508 C5.81245614,16.1986441 5.92929825,16.2716949 6.04877193,16.3411864 C6.06964912,16.3532203 6.09052632,16.3649153 6.11140351,16.3764407 C6.26105263,16.4618644 6.41368421,16.5427119 6.56964912,16.6184746 C6.57491228,16.6211864 6.58035088,16.6233898 6.58561404,16.6261017 C6.82175439,16.739661 7.06438596,16.8430508 7.31350877,16.9332203 L7.57526316,19.120339 C7.57526316,19.6049153 7.98192982,19.9981356 8.48385965,19.9981356 L11.5121053,19.9983051 C12.0136842,19.9981356 12.4207018,19.6054237 12.4207018,19.120339 L12.6826316,16.9328814 C12.6954386,16.9283051 12.7077193,16.9230508 12.7205263,16.9184746 C12.7331579,16.9138983 12.7457895,16.9086441 12.7582456,16.9038983 C12.8426316,16.8723729 12.9264912,16.839661 13.0094737,16.8054237 C13.0257895,16.7988136 13.0419298,16.7915254 13.0580702,16.7847458 C13.1321053,16.7533898 13.2057895,16.7215254 13.2784211,16.6883051 C13.2852632,16.6849153 13.2922807,16.6816949 13.2991228,16.6783051 C13.2996491,16.6781356 13.3003509,16.6777966 13.3010526,16.6774576 C13.3087719,16.6738983 13.3168421,16.670678 13.3245614,16.6667797 C13.3531579,16.6533898 13.3817544,16.6398305 13.41,16.6261017 C13.4705263,16.5971186 13.5301754,16.5669492 13.5894737,16.5364407 C13.6347368,16.5132203 13.68,16.490678 13.7247368,16.4667797 C13.7475439,16.4545763 13.77,16.4413559 13.7926316,16.4286441 C13.8001754,16.4245763 13.8078947,16.42 13.8154386,16.4157627 C13.8192982,16.4137288 13.8233333,16.4122034 13.8270175,16.41 C13.8336842,16.4064407 13.8398246,16.4022034 13.8464912,16.3986441 C13.9496491,16.3408475 14.0515789,16.280678 14.1519298,16.2181356 C14.1592982,16.2135593 14.1664912,16.2088136 14.1738596,16.2045763 C14.1894737,16.1945763 14.2052632,16.1852542 14.2207018,16.1752542 C14.3054386,16.1213559 14.3892982,16.0652542 14.4721053,16.0077966 C14.4803509,16.0022034 14.4882456,15.9966102 14.4963158,15.990678 C14.5894737,15.9254237 14.6815789,15.8581356 14.7717544,15.7886441 C14.7840351,15.779322 14.7964912,15.77 14.8084211,15.760678 C14.8287719,15.7444068 14.8498246,15.7291525 14.8701754,15.7130508 L16.9614035,16.5874576 C17.3961404,16.83 17.9517544,16.6859322 18.2024561,16.2661017 L19.7166667,13.7325424 C19.967193,13.3127119 19.8184211,12.7759322 19.3838596,12.5335593 Z M10,13.0530508 C8.25473684,13.0530508 6.83982456,11.6862712 6.83982456,10 C6.83982456,8.31372881 8.25473684,6.94677966 10,6.94677966 C11.7452632,6.94677966 13.1603509,8.31389831 13.1603509,10 C13.1603509,11.6861017 11.7452632,13.0530508 10,13.0530508 Z" id="Shape"></path>
            </g>
            <g id="if_settings_1167993" transform="translate(26.745191, 9.745191) rotate(30.000000) translate(-26.745191, -9.745191) translate(19.745191, 2.745191)">
                <path d="M13.5687018,8.77349153 L12.288193,7.8550678 C12.291386,7.83632203 12.2937193,7.81745763 12.2967895,7.79859322 C12.2981404,7.79088136 12.2991228,7.78305085 12.3003509,7.77545763 C12.3128772,7.69537288 12.3234386,7.61540678 12.3319123,7.53532203 C12.3324035,7.53105085 12.3327719,7.52701695 12.3332632,7.52274576 C12.3419825,7.43922034 12.348614,7.35557627 12.3529123,7.2719322 C12.3532807,7.26837288 12.3534035,7.26457627 12.3535263,7.26101695 C12.3577018,7.17820339 12.3600351,7.09538983 12.3601579,7.01257627 C12.3601579,7.00842373 12.3604035,7.00427119 12.3604035,7.00011864 C12.3604035,6.99549153 12.3601579,6.99086441 12.3601579,6.98623729 C12.3601579,6.96820339 12.3605263,6.9499322 12.3602807,6.93189831 C12.3601579,6.92857627 12.3602807,6.92525424 12.3602807,6.92181356 C12.3596667,6.88574576 12.3580702,6.84991525 12.3567193,6.81384746 C12.3557368,6.79154237 12.3546316,6.76947458 12.3535263,6.74728814 C12.3510702,6.70315254 12.3493509,6.65901695 12.3459123,6.615 C12.3454211,6.61049153 12.344807,6.60586441 12.3445614,6.60135593 C12.3434561,6.58842373 12.3421053,6.57537288 12.3412456,6.56255932 C12.3391579,6.53918644 12.3363333,6.51581356 12.334,6.49244068 C12.333386,6.48733898 12.3328947,6.48223729 12.3324035,6.47725424 C12.3320351,6.47440678 12.3317895,6.47132203 12.3314211,6.46847458 C12.3300702,6.45672881 12.3290877,6.44486441 12.3278596,6.43311864 C12.3261404,6.41852542 12.3252807,6.4039322 12.3234386,6.38945763 C12.3224561,6.38186441 12.3212281,6.37438983 12.3204912,6.36691525 C12.319386,6.35872881 12.3179123,6.35030508 12.316807,6.34211864 C12.3090702,6.2819661 12.3003509,6.22205085 12.2902807,6.16249153 C12.2894211,6.15727119 12.2890526,6.15205085 12.288193,6.14683051 L13.5704211,5.22710169 C13.8747368,5.05744068 13.9788772,4.68169492 13.8032632,4.38781356 L12.7433158,2.61420339 C12.5677018,2.32032203 12.1786491,2.21971186 11.8745789,2.38937288 L10.4087544,3.00240678 C10.4006491,2.99588136 10.391807,2.99030508 10.3837018,2.98401695 C10.3798947,2.98105085 10.3762105,2.97808475 10.3724035,2.97511864 C10.3534912,2.96028814 10.3339649,2.94605085 10.3146842,2.93145763 C10.2936842,2.91544068 10.272807,2.89966102 10.2516842,2.88423729 C10.2343684,2.87154237 10.2169298,2.85920339 10.199614,2.84674576 C10.1916316,2.84081356 10.1832807,2.835 10.1751754,2.82918644 C10.1609298,2.81910169 10.1470526,2.80854237 10.1326842,2.79857627 C10.1248246,2.793 10.1169649,2.78754237 10.1089825,2.7819661 C10.0890877,2.76832203 10.0689474,2.75515254 10.048807,2.74174576 C10.0437719,2.73842373 10.0387368,2.73486441 10.0335789,2.73154237 C10.0248596,2.72572881 10.0160175,2.71991525 10.0072982,2.71422034 C9.97794737,2.69488136 9.94847368,2.67589831 9.91875439,2.65715254 C9.9154386,2.65513559 9.912,2.65311864 9.90868421,2.65098305 C9.86005263,2.62061017 9.81117544,2.59071186 9.7615614,2.56188136 C9.74891228,2.55452542 9.73626316,2.54764407 9.72349123,2.54040678 C9.61689474,2.47954237 9.50833333,2.42188136 9.39731579,2.36825424 C9.39510526,2.36718644 9.39314035,2.36623729 9.39080702,2.36528814 C9.247,2.29588136 9.09938596,2.23276271 8.94845614,2.17569492 C8.9442807,2.17415254 8.94010526,2.17261017 8.93592982,2.17094915 C8.91664912,2.16371186 8.89749123,2.15588136 8.87821053,2.14876271 L8.69485965,0.615644068 C8.69498246,0.276322034 8.41031579,0.00118644068 8.05896491,0.00118644068 L5.9395614,0.00118644068 C5.58833333,0.00118644068 5.30366667,0.27620339 5.30366667,0.615644068 L5.12031579,2.14876271 C5.1117193,2.15184746 5.10349123,2.15540678 5.09489474,2.15849153 C5.08494737,2.16216949 5.07487719,2.16608475 5.06492982,2.17 C5.00635088,2.19194915 4.94838596,2.21461017 4.89091228,2.23845763 C4.88059649,2.24261017 4.8702807,2.24723729 4.86008772,2.25150847 C4.80801754,2.27345763 4.75619298,2.296 4.70485965,2.31937288 C4.69945614,2.32186441 4.69405263,2.32447458 4.68864912,2.3269661 C4.68189474,2.33005085 4.67514035,2.33301695 4.66838596,2.33610169 C4.64959649,2.34488136 4.63092982,2.35389831 4.61226316,2.36291525 C4.56915789,2.38367797 4.52654386,2.4050339 4.48417544,2.42698305 C4.45347368,2.44276271 4.42252632,2.45830508 4.39194737,2.47455932 C4.37266667,2.485 4.35375439,2.49615254 4.33459649,2.50671186 C4.33312281,2.50742373 4.33164912,2.50837288 4.33017544,2.50920339 C4.32661404,2.51122034 4.32280702,2.51264407 4.31936842,2.51466102 C4.31310526,2.51810169 4.30733333,2.52213559 4.30119298,2.52545763 C4.23180702,2.56437288 4.16340351,2.60483051 4.09585965,2.64683051 C4.08812281,2.65157627 4.08050877,2.65632203 4.07289474,2.66118644 C4.06515789,2.66605085 4.05717544,2.67091525 4.04931579,2.67577966 C4.04710526,2.67732203 4.04477193,2.67850847 4.04268421,2.6799322 C3.98496491,2.71683051 3.92810526,2.75491525 3.87173684,2.79394915 C3.86387719,2.79940678 3.85589474,2.80486441 3.84803509,2.81044068 C3.78503509,2.85457627 3.72289474,2.90025424 3.66173684,2.94711864 C3.65117544,2.95518644 3.64049123,2.96337288 3.63005263,2.97155932 C3.61666667,2.98211864 3.60291228,2.9919661 3.58964912,3.00264407 L2.12578947,2.39044068 C1.82159649,2.22077966 1.43254386,2.32150847 1.25692982,2.61538983 L0.196736842,4.38864407 C0.021,4.68276271 0.125385965,5.05850847 0.42945614,5.22816949 L1.71021053,6.14671186 C1.70763158,6.16154237 1.70578947,6.17649153 1.70333333,6.19132203 C1.70063158,6.20828814 1.69805263,6.22513559 1.69559649,6.24210169 C1.68491228,6.31257627 1.67545614,6.3829322 1.6677193,6.45328814 C1.66624561,6.46716949 1.66489474,6.4809322 1.66342105,6.4949322 C1.65703509,6.5579322 1.65163158,6.62105085 1.64770175,6.68405085 C1.64745614,6.68891525 1.64721053,6.69389831 1.64696491,6.69876271 C1.64659649,6.70410169 1.64647368,6.70944068 1.64610526,6.71477966 C1.64524561,6.72866102 1.64463158,6.74266102 1.64389474,6.75666102 C1.64045614,6.82844068 1.63861404,6.90033898 1.63836842,6.972 C1.63824561,6.98208475 1.63750877,6.99181356 1.63750877,7.00189831 C1.63750877,7.01281356 1.63812281,7.02384746 1.63812281,7.03476271 C1.63812281,7.04271186 1.638,7.05077966 1.63812281,7.05872881 C1.63812281,7.06738983 1.63787719,7.07605085 1.63812281,7.08483051 C1.63861404,7.11413559 1.63996491,7.14355932 1.64107018,7.17286441 C1.64229825,7.21094915 1.64438596,7.24891525 1.64647368,7.28676271 C1.64831579,7.31867797 1.64966667,7.35047458 1.65212281,7.38227119 C1.65249123,7.38677966 1.65285965,7.39140678 1.65310526,7.39591525 C1.65433333,7.41169492 1.65580702,7.42747458 1.65715789,7.44301695 C1.65887719,7.46330508 1.66133333,7.48347458 1.66329825,7.50364407 C1.66784211,7.54932203 1.67238596,7.59488136 1.67815789,7.64008475 C1.67815789,7.64067797 1.67840351,7.64138983 1.67840351,7.64198305 C1.687,7.70949153 1.69694737,7.77664407 1.70836842,7.84344068 C1.70898246,7.84723729 1.70922807,7.85115254 1.70996491,7.85518644 L0.429578947,8.77372881 C0.125263158,8.94338983 0.021122807,9.31913559 0.196859649,9.61289831 L1.25668421,11.3865085 C1.43229825,11.6805085 1.82135088,11.7811186 2.12542105,11.6114576 L3.58903509,10.9997288 C3.59910526,11.0077966 3.60978947,11.0145593 3.61985965,11.0223898 C3.62157895,11.0239322 3.62354386,11.025 3.62526316,11.0263051 C3.62526316,11.0265424 3.62550877,11.0265424 3.62550877,11.026661 C3.64122807,11.039 3.6574386,11.0508644 3.67340351,11.0630847 C3.69845614,11.0821864 3.72350877,11.1012881 3.74892982,11.1199153 C3.76366667,11.1308305 3.77852632,11.1412712 3.79338596,11.1520678 C3.81291228,11.1660678 3.83231579,11.1803051 3.85208772,11.1941864 C3.85429825,11.1957288 3.85626316,11.1971525 3.85835088,11.1988136 C3.86768421,11.205339 3.87677193,11.2118644 3.88622807,11.2182712 C3.90894737,11.2339322 3.93215789,11.249 3.95512281,11.2641864 C3.95708772,11.2657288 3.95917544,11.2669153 3.96114035,11.2681017 C3.97022807,11.2742712 3.97919298,11.280322 3.9882807,11.2861356 C4.0687193,11.3390508 4.15050877,11.3901864 4.23414035,11.4388305 C4.24875439,11.4472542 4.26336842,11.4554407 4.27798246,11.4635085 C4.38273684,11.5233051 4.48957895,11.5798983 4.59875439,11.6329322 C4.6024386,11.6348305 4.60624561,11.6363729 4.60992982,11.6382712 C4.77522807,11.7177627 4.94507018,11.7901356 5.11945614,11.8532542 L5.30268421,13.3842373 C5.30268421,13.7234407 5.58735088,13.9986949 5.93870175,13.9986949 L8.05847368,13.9988136 C8.40957895,13.9986949 8.69449123,13.7237966 8.69449123,13.3842373 L8.87784211,11.8530169 C8.88680702,11.8498136 8.89540351,11.8461356 8.90436842,11.8429322 C8.91321053,11.8397288 8.92205263,11.8360508 8.93077193,11.8327288 C8.98984211,11.810661 9.04854386,11.7877627 9.10663158,11.7637966 C9.11805263,11.7591695 9.12935088,11.7540678 9.14064912,11.749322 C9.19247368,11.7273729 9.24405263,11.7050678 9.29489474,11.6818136 C9.29968421,11.6794407 9.30459649,11.6771864 9.30938596,11.6748136 C9.30975439,11.6746949 9.31024561,11.6744576 9.31073684,11.6742203 C9.31614035,11.6717288 9.32178947,11.6694746 9.32719298,11.6667458 C9.34721053,11.6573729 9.36722807,11.6478814 9.387,11.6382712 C9.42936842,11.6179831 9.47112281,11.5968644 9.51263158,11.5755085 C9.54431579,11.5592542 9.576,11.5434746 9.60731579,11.5267458 C9.6232807,11.5182034 9.639,11.5089492 9.65484211,11.5000508 C9.66012281,11.4972034 9.66552632,11.494 9.67080702,11.4910339 C9.67350877,11.4896102 9.67633333,11.4885424 9.67891228,11.487 C9.68357895,11.4845085 9.68787719,11.4815424 9.69254386,11.4790508 C9.76475439,11.4385932 9.83610526,11.3964746 9.90635088,11.3526949 C9.91150877,11.3494915 9.91654386,11.3461695 9.92170175,11.3432034 C9.93263158,11.3362034 9.94368421,11.329678 9.95449123,11.322678 C10.013807,11.2849492 10.0725088,11.245678 10.1304737,11.2054576 C10.1362456,11.2015424 10.1417719,11.1976271 10.1474211,11.1934746 C10.2126316,11.1477966 10.2771053,11.1006949 10.3402281,11.0520508 C10.3488246,11.0455254 10.3575439,11.039 10.3658947,11.0324746 C10.3801404,11.0210847 10.3948772,11.0104068 10.4091228,10.9991356 L11.8729825,11.6112203 C12.1772982,11.781 12.5662281,11.6801525 12.7417193,11.3862712 L13.8016667,9.61277966 C13.9770351,9.31889831 13.8728947,8.94315254 13.5687018,8.77349153 Z M7,9.13713559 C5.77831579,9.13713559 4.78787719,8.18038983 4.78787719,7 C4.78787719,5.81961017 5.77831579,4.86274576 7,4.86274576 C8.22168421,4.86274576 9.21224561,5.81972881 9.21224561,7 C9.21224561,8.18027119 8.22168421,9.13713559 7,9.13713559 Z" id="Shape"></path>
            </g>
        </g>
    </g>
</svg>