<?xml version="1.0" encoding="UTF-8" standalone="no"?>
<!-- Generator: Adobe Illustrator 21.1.0, SVG Export Plug-In . SVG Version: 6.00 Build 0)  -->

<svg
   xmlns:dc="http://purl.org/dc/elements/1.1/"
   xmlns:cc="http://creativecommons.org/ns#"
   xmlns:rdf="http://www.w3.org/1999/02/22-rdf-syntax-ns#"
   xmlns:svg="http://www.w3.org/2000/svg"
   xmlns="http://www.w3.org/2000/svg"
   xmlns:sodipodi="http://sodipodi.sourceforge.net/DTD/sodipodi-0.dtd"
   xmlns:inkscape="http://www.inkscape.org/namespaces/inkscape"
   version="1.1"
   id="Layer_1"
   x="0px"
   y="0px"
   viewBox="0 0 271.5 82.6"
   style="enable-background:new 0 0 271.5 82.6;"
   xml:space="preserve"
   sodipodi:docname="Organizations_icons.svg"
   inkscape:version="0.92.2 (5c3e80d, 2017-08-06)"><metadata
     id="metadata3827"><rdf:RDF><cc:Work
         rdf:about=""><dc:format>image/svg+xml</dc:format><dc:type
           rdf:resource="http://purl.org/dc/dcmitype/StillImage" /></cc:Work></rdf:RDF></metadata><defs
     id="defs3825" /><sodipodi:namedview
     pagecolor="#ffffff"
     bordercolor="#666666"
     borderopacity="1"
     objecttolerance="10"
     gridtolerance="10"
     guidetolerance="10"
     inkscape:pageopacity="0"
     inkscape:pageshadow="2"
     inkscape:window-width="1136"
     inkscape:window-height="701"
     id="namedview3823"
     showgrid="false"
     inkscape:zoom="1.3996317"
     inkscape:cx="135.75"
     inkscape:cy="41.299999"
     inkscape:window-x="0"
     inkscape:window-y="0"
     inkscape:window-maximized="0"
     inkscape:current-layer="g3820" /><style
     type="text/css"
     id="style3764">
	.st0{fill:#F2673B;}
	.st1{fill:#FFFFFF;}
	.st2{font-family:'MyriadPro-Bold';}
	.st3{font-size:9.6663px;}
	.st4{fill:none;stroke:#4B4B4C;stroke-width:1.2083;stroke-miterlimit:10;}
</style><g
     id="g3820"><g
       id="g3774"><circle
         class="st0"
         cx="135.7"
         cy="41.3"
         r="35.6"
         id="circle3766" /><text
         class="st1 st2 st3"
         id="text3768"
         style="font-size:9.66629982px;font-family:MyriadPro-Bold;fill:#ffffff"
         x="115.37788"
         y="50.943153">POST A</text>
<text
         transform="translate(111.9371,62.0721)"
         class="st1 st2 st3"
         id="text3770"
         style="font-size:9.66629982px;font-family:MyriadPro-Bold;fill:#ffffff">PROJECT</text>
<path
         class="st1"
         d="m 148.91447,31.385526 v -13.8 c 0,-1.9 -1.5,-3.4 -3.4,-3.4 h -18.1 c -1.9,0 -3.4,1.5 -3.4,3.4 v 13.8 c 0,1.9 1.5,3.4 3.4,3.4 h 3.7 v 5.4 l 5.7,-5.4 h 8.7 c 1.8,-0.1 3.4,-1.6 3.4,-3.4 z m -12.8,1.8 -3.5,3.4 v -3.4 h -5.2 c -1,0 -1.9,-0.8 -1.9,-1.9 v -13.7 c 0,-1 0.8,-1.9 1.9,-1.9 h 18.1 c 1,0 1.9,0.8 1.9,1.9 v 13.8 c 0,1 -0.8,1.9 -1.9,1.9 l -9.4,-0.1 z"
         id="path3772"
         inkscape:connector-curvature="0"
         style="fill:#ffffff" /></g><g
       id="g3790"
       transform="matrix(0.99000906,0,0,1,191.52491,0)"><circle
         class="st0"
         cx="40.200001"
         cy="41.299999"
         r="35.599998"
         id="circle3776"
         style="fill:#f2673b" /><text
         transform="translate(28.8328,52.3721)"
         class="st1 st2 st3"
         id="text3778"
         style="font-size:9.66629982px;font-family:MyriadPro-Bold;fill:#ffffff">FIND</text>
<text
         transform="scale(0.94852466,1.0542689)"
         class="st1 st2 st3"
         id="text3780"
         style="font-size:9.16872406px;font-family:MyriadPro-Bold;fill:#ffffff;stroke-width:0.94852465"
         x="11.855368"
         y="58.876919">VOLUNTEERS</text>
<g
         id="g3788"><path
           class="st1"
           d="m 41.7,24.4 c 1.7,-0.9 2.8,-2.7 2.8,-4.8 0,-3 -2.4,-5.4 -5.4,-5.4 -3,0 -5.4,2.4 -5.4,5.4 0,2.1 1.1,3.8 2.8,4.8 -5.2,1.3 -9.1,6.3 -9.1,12.2 0,0.9 0.8,1.7 1.7,1.7 h 20 c 0.9,0 1.7,-0.8 1.7,-1.7 0,-6 -3.9,-11 -9.1,-12.2 z"
           id="path3782"
           inkscape:connector-curvature="0"
           style="fill:#ffffff" /><path
           class="st1"
           d="M 30.2,27 C 29.9,26.9 29.7,26.8 29.4,26.7 30.3,26.2 31,25.2 31,24 c 0,-1.7 -1.4,-3 -3.1,-3 -1.7,0 -3,1.4 -3,3 0,1.2 0.6,2.2 1.6,2.7 -2.9,0.7 -5.1,3.5 -5.1,6.9 0,0.5 0.4,1 1,1 h 3.2 c 0.8,-3 2.4,-5.7 4.6,-7.6 z"
           id="path3784"
           inkscape:connector-curvature="0"
           style="fill:#ffffff" /><path
           class="st1"
           d="m 52.2,24.1 c 1.3,-0.7 2.1,-2 2.1,-3.6 0,-2.2 -1.8,-4.1 -4.1,-4.1 -2.2,0 -4.1,1.8 -4.1,4.1 0,1.5 0.9,2.9 2.1,3.6 -1,0.2 -1.9,0.6 -2.7,1.2 3.4,1.9 5.9,5.2 7,9.3 h 5.1 c 0.7,0 1.3,-0.6 1.3,-1.3 C 59,28.8 56,25.1 52.2,24.1 Z"
           id="path3786"
           inkscape:connector-curvature="0"
           style="fill:#ffffff" /></g></g><g
       id="g3802"
       transform="translate(-190.08553,-1.1289474)"><circle
         class="st0"
         cx="231.3"
         cy="41.299999"
         r="35.599998"
         id="circle3792"
         style="fill:#f2673b" /><text
         class="st1 st2 st3"
         id="text3794"
         style="font-size:9.66629982px;font-family:MyriadPro-Bold;fill:#ffffff"
         x="209.54553"
         y="51.2402">CREATE A</text>
<text
         transform="translate(211.5179,60.9402)"
         class="st1 st2 st3"
         id="text3796"
         style="font-size:9.66629982px;font-family:MyriadPro-Bold;fill:#ffffff">PROFILE</text>
<g
         id="g3800"><path
           class="st1"
           d="M 235.1,26.8 233,26.2 c 0.1,-0.8 0.1,-1.5 0,-2.3 l 2.1,-0.6 c 0.4,-0.1 0.6,-0.5 0.5,-0.8 l -0.4,-1.3 c -0.1,-0.4 -0.5,-0.6 -0.8,-0.5 l -2.1,0.6 c -0.3,-0.7 -0.7,-1.3 -1.1,-2 l 1.5,-1.5 c 0.3,-0.3 0.3,-0.7 0,-1 l -1,-1 c -0.3,-0.3 -0.7,-0.3 -1,0 l -1.5,1.5 c -0.6,-0.5 -1.3,-0.8 -2,-1.1 l 0.6,-2.1 c 0.1,-0.4 -0.1,-0.7 -0.5,-0.8 L 226,12.9 c -0.4,-0.1 -0.7,0.1 -0.8,0.5 l -0.6,2.1 c -0.8,-0.1 -1.5,-0.1 -2.3,0 l -0.6,-2.1 c -0.1,-0.4 -0.5,-0.6 -0.8,-0.5 l -1.3,0.4 c -0.4,0.1 -0.6,0.5 -0.5,0.8 l 0.6,2.1 c -0.7,0.3 -1.3,0.7 -2,1.1 l -1.5,-1.5 c -0.3,-0.3 -0.7,-0.3 -1,0 l -1,1 c -0.3,0.3 -0.3,0.7 0,1 l 1.5,1.5 c -0.5,0.6 -0.8,1.3 -1.1,2 l -2.1,-0.6 c -0.4,-0.1 -0.7,0.1 -0.8,0.5 l -0.4,1.3 c -0.1,0.4 0.1,0.7 0.5,0.8 L 214,24 c -0.1,0.8 -0.1,1.5 0,2.3 l -2.1,0.6 c -0.4,0.1 -0.6,0.5 -0.5,0.8 l 0.4,1.3 c 0.1,0.4 0.5,0.6 0.8,0.5 l 2.1,-0.6 c 0.3,0.7 0.7,1.3 1.1,2 l -1.5,1.5 c -0.3,0.3 -0.3,0.7 0,1 l 1,1 c 0.3,0.3 0.7,0.3 1,0 l 1.5,-1.5 c 0.6,0.5 1.3,0.8 2,1.1 l -0.6,2.1 c -0.1,0.4 0.1,0.7 0.5,0.8 l 1.3,0.4 c 0.4,0.1 0.7,-0.1 0.8,-0.5 l 0.6,-2.1 c 0.8,0.1 1.5,0.1 2.3,0 l 0.6,2.1 c 0.1,0.4 0.5,0.6 0.8,0.5 l 1.3,-0.4 c 0.4,-0.1 0.6,-0.5 0.5,-0.8 L 227.3,34 c 0.7,-0.3 1.3,-0.7 2,-1.1 l 1.5,1.5 c 0.3,0.3 0.7,0.3 1,0 l 1,-1 c 0.3,-0.3 0.3,-0.7 0,-1 l -1.5,-1.5 c 0.5,-0.6 0.8,-1.3 1.1,-2 l 2.1,0.6 c 0.4,0.1 0.7,-0.1 0.8,-0.5 l 0.4,-1.3 c 0,-0.4 -0.3,-0.8 -0.6,-0.9 z m -7.3,2.7 c -2.4,2.4 -6.3,2.4 -8.7,0 -2.4,-2.4 -2.4,-6.3 0,-8.7 2.4,-2.4 6.3,-2.4 8.7,0 2.4,2.4 2.4,6.3 0,8.7 z m -6.7,-6.8 c -1.3,1.3 -1.3,3.5 0,4.8 1.3,1.3 3.5,1.3 4.8,0 1.3,-1.3 1.3,-3.5 0,-4.8 -1.3,-1.3 -3.5,-1.3 -4.8,0 z m 26.6,-3.4 -1,1 c -0.7,-0.5 -1.5,-0.8 -2.3,-1 v -1.5 c 0,-0.4 -0.3,-0.7 -0.7,-0.7 H 243 c -0.4,0 -0.7,0.3 -0.7,0.7 v 1.5 c -0.8,0.1 -1.6,0.5 -2.3,1 l -1,-1 c -0.3,-0.3 -0.7,-0.3 -1,0 l -0.5,0.5 c -0.3,0.3 -0.3,0.7 0,1 l 1,1 c -0.5,0.7 -0.8,1.5 -0.9,2.3 h -1.5 c -0.4,0 -0.7,0.3 -0.7,0.7 v 0.7 c 0,0.4 0.3,0.7 0.7,0.7 h 1.5 c 0.1,0.8 0.5,1.6 1,2.3 l -1,1 c -0.3,0.3 -0.3,0.7 0,1 l 0.5,0.5 c 0.3,0.3 0.7,0.3 1,0 l 1,-1 c 0.7,0.5 1.5,0.8 2.3,1 v 1.5 c 0,0.4 0.3,0.7 0.7,0.7 h 0.7 c 0.4,0 0.7,-0.3 0.7,-0.7 V 31 c 0.8,-0.1 1.6,-0.5 2.3,-1 l 1,1 c 0.3,0.3 0.7,0.3 1,0 l 0.5,-0.5 c 0.3,-0.3 0.3,-0.7 0,-1 l -1,-1 c 0.5,-0.7 0.8,-1.5 1,-2.3 h 1.5 c 0.4,0 0.7,-0.3 0.7,-0.7 v -0.7 c 0,-0.4 -0.3,-0.7 -0.7,-0.7 h -1.5 c -0.1,-0.8 -0.5,-1.6 -1,-2.3 l 1,-1 c 0.3,-0.3 0.3,-0.7 0,-1 l -0.5,-0.5 c -0.4,-0.2 -0.9,-0.2 -1.1,0 z m -1.7,8.5 c -1.5,1.5 -3.9,1.5 -5.3,0 -1.5,-1.5 -1.5,-3.9 0,-5.3 1.5,-1.5 3.9,-1.5 5.3,0 1.4,1.4 1.5,3.8 0,5.3 z m -3.9,-3.9 c -0.7,0.7 -0.7,1.8 0,2.4 0.7,0.7 1.8,0.7 2.4,0 0.7,-0.7 0.7,-1.8 0,-2.4 -0.6,-0.7 -1.7,-0.7 -2.4,0 z"
           id="path3798"
           inkscape:connector-curvature="0"
           style="fill:#ffffff" /></g></g><g
       id="g3810"
       transform="matrix(-1,0,0,1,365.74217,0)"><g
         id="g3806"><polyline
           class="st4"
           points="182.2,35 175.9,41.3 182.2,47.5    "
           id="polyline3804"
           style="fill:none;stroke:#4b4b4c;stroke-width:1.20829999;stroke-miterlimit:10" /></g><line
         class="st4"
         x1="190.7"
         y1="41.299999"
         x2="176.5"
         y2="41.299999"
         id="line3808"
         style="fill:none;stroke:#4b4b4c;stroke-width:1.20829999;stroke-miterlimit:10" /></g><g
       id="g3818"
       transform="matrix(-1,0,0,1,173.34901,0)"><g
         id="g3814"><polyline
           class="st4"
           points="85.9,35 79.7,41.3 85.9,47.5    "
           id="polyline3812"
           style="fill:none;stroke:#4b4b4c;stroke-width:1.20829999;stroke-miterlimit:10" /></g><line
         class="st4"
         x1="94.5"
         y1="41.299999"
         x2="80.300003"
         y2="41.299999"
         id="line3816"
         style="fill:none;stroke:#4b4b4c;stroke-width:1.20829999;stroke-miterlimit:10" /></g></g></svg>