<?xml version="1.0" encoding="utf-8"?>
<!-- Generator: Adobe Illustrator 21.1.0, SVG Export Plug-In . SVG Version: 6.00 Build 0)  -->
<svg version="1.1" id="Layer_1" xmlns="http://www.w3.org/2000/svg" xmlns:xlink="http://www.w3.org/1999/xlink" x="0px" y="0px"
	 viewBox="0 0 271.5 82.6" style="enable-background:new 0 0 271.5 82.6;" xml:space="preserve">
<style type="text/css">
	.st0{fill:#F2673B;}
	.st1{fill:#FFFFFF;}
	.st2{font-family:'MyriadPro-Bold';}
	.st3{font-size:9.6663px;}
	.st4{fill:none;stroke:#4B4B4C;stroke-width:1.2083;stroke-miterlimit:10;}
</style>
<g>
	<g>
		<circle class="st0" cx="135.7" cy="41.3" r="35.6"/>
		<text transform="matrix(1 0 0 1 123.2371 52.3721)" class="st1 st2 st3">POST</text>
		<text transform="matrix(1 0 0 1 111.9371 62.0721)" class="st1 st2 st3">PROJECTS</text>
		<path class="st1" d="M148.2,32.1V18.3c0-1.9-1.5-3.4-3.4-3.4h-18.1c-1.9,0-3.4,1.5-3.4,3.4v13.8c0,1.9,1.5,3.4,3.4,3.4h3.7v5.4
			l5.7-5.4h8.7C146.6,35.4,148.2,33.9,148.2,32.1z M135.4,33.9l-3.5,3.4v-3.4h-5.2c-1,0-1.9-0.8-1.9-1.9V18.3c0-1,0.8-1.9,1.9-1.9
			h18.1c1,0,1.9,0.8,1.9,1.9v13.8c0,1-0.8,1.9-1.9,1.9L135.4,33.9L135.4,33.9z"/>
	</g>
	<g>
		<circle class="st0" cx="40.2" cy="41.3" r="35.6"/>
		<text transform="matrix(1 0 0 1 28.8328 52.3721)" class="st1 st2 st3">FIND</text>
		<text transform="matrix(1 0 0 1 11.2328 62.0721)" class="st1 st2 st3">VOLUNTEERS</text>
		<g>
			<path class="st1" d="M41.7,24.4c1.7-0.9,2.8-2.7,2.8-4.8c0-3-2.4-5.4-5.4-5.4s-5.4,2.4-5.4,5.4c0,2.1,1.1,3.8,2.8,4.8
				c-5.2,1.3-9.1,6.3-9.1,12.2c0,0.9,0.8,1.7,1.7,1.7h20c0.9,0,1.7-0.8,1.7-1.7C50.8,30.6,46.9,25.6,41.7,24.4z"/>
			<path class="st1" d="M30.2,27c-0.3-0.1-0.5-0.2-0.8-0.3c0.9-0.5,1.6-1.5,1.6-2.7c0-1.7-1.4-3-3.1-3s-3,1.4-3,3
				c0,1.2,0.6,2.2,1.6,2.7c-2.9,0.7-5.1,3.5-5.1,6.9c0,0.5,0.4,1,1,1h3.2C26.4,31.6,28,28.9,30.2,27z"/>
			<path class="st1" d="M52.2,24.1c1.3-0.7,2.1-2,2.1-3.6c0-2.2-1.8-4.1-4.1-4.1c-2.2,0-4.1,1.8-4.1,4.1c0,1.5,0.9,2.9,2.1,3.6
				c-1,0.2-1.9,0.6-2.7,1.2c3.4,1.9,5.9,5.2,7,9.3h5.1c0.7,0,1.3-0.6,1.3-1.3C59,28.8,56,25.1,52.2,24.1z"/>
		</g>
	</g>
	<g>
		<circle class="st0" cx="231.3" cy="41.3" r="35.6"/>
		<text transform="matrix(1 0 0 1 213.1179 51.2402)" class="st1 st2 st3">CREATE</text>
		<text transform="matrix(1 0 0 1 211.5179 60.9402)" class="st1 st2 st3">PROFILE</text>
		<g>
			<path class="st1" d="M235.1,26.8l-2.1-0.6c0.1-0.8,0.1-1.5,0-2.3l2.1-0.6c0.4-0.1,0.6-0.5,0.5-0.8l-0.4-1.3
				c-0.1-0.4-0.5-0.6-0.8-0.5l-2.1,0.6c-0.3-0.7-0.7-1.3-1.1-2l1.5-1.5c0.3-0.3,0.3-0.7,0-1l-1-1c-0.3-0.3-0.7-0.3-1,0l-1.5,1.5
				c-0.6-0.5-1.3-0.8-2-1.1l0.6-2.1c0.1-0.4-0.1-0.7-0.5-0.8l-1.3-0.4c-0.4-0.1-0.7,0.1-0.8,0.5l-0.6,2.1c-0.8-0.1-1.5-0.1-2.3,0
				l-0.6-2.1c-0.1-0.4-0.5-0.6-0.8-0.5l-1.3,0.4c-0.4,0.1-0.6,0.5-0.5,0.8l0.6,2.1c-0.7,0.3-1.3,0.7-2,1.1l-1.5-1.5
				c-0.3-0.3-0.7-0.3-1,0l-1,1c-0.3,0.3-0.3,0.7,0,1l1.5,1.5c-0.5,0.6-0.8,1.3-1.1,2l-2.1-0.6c-0.4-0.1-0.7,0.1-0.8,0.5l-0.4,1.3
				c-0.1,0.4,0.1,0.7,0.5,0.8L214,24c-0.1,0.8-0.1,1.5,0,2.3l-2.1,0.6c-0.4,0.1-0.6,0.5-0.5,0.8l0.4,1.3c0.1,0.4,0.5,0.6,0.8,0.5
				l2.1-0.6c0.3,0.7,0.7,1.3,1.1,2l-1.5,1.5c-0.3,0.3-0.3,0.7,0,1l1,1c0.3,0.3,0.7,0.3,1,0l1.5-1.5c0.6,0.5,1.3,0.8,2,1.1l-0.6,2.1
				c-0.1,0.4,0.1,0.7,0.5,0.8l1.3,0.4c0.4,0.1,0.7-0.1,0.8-0.5l0.6-2.1c0.8,0.1,1.5,0.1,2.3,0l0.6,2.1c0.1,0.4,0.5,0.6,0.8,0.5
				l1.3-0.4c0.4-0.1,0.6-0.5,0.5-0.8l-0.6-2.1c0.7-0.3,1.3-0.7,2-1.1l1.5,1.5c0.3,0.3,0.7,0.3,1,0l1-1c0.3-0.3,0.3-0.7,0-1l-1.5-1.5
				c0.5-0.6,0.8-1.3,1.1-2l2.1,0.6c0.4,0.1,0.7-0.1,0.8-0.5l0.4-1.3C235.7,27.3,235.4,26.9,235.1,26.8z M227.8,29.5
				c-2.4,2.4-6.3,2.4-8.7,0s-2.4-6.3,0-8.7s6.3-2.4,8.7,0S230.2,27.1,227.8,29.5z M221.1,22.7c-1.3,1.3-1.3,3.5,0,4.8s3.5,1.3,4.8,0
				s1.3-3.5,0-4.8C224.6,21.4,222.4,21.4,221.1,22.7z M247.7,19.3l-1,1c-0.7-0.5-1.5-0.8-2.3-1v-1.5c0-0.4-0.3-0.7-0.7-0.7H243
				c-0.4,0-0.7,0.3-0.7,0.7v1.5c-0.8,0.1-1.6,0.5-2.3,1l-1-1c-0.3-0.3-0.7-0.3-1,0l-0.5,0.5c-0.3,0.3-0.3,0.7,0,1l1,1
				c-0.5,0.7-0.8,1.5-0.9,2.3h-1.5c-0.4,0-0.7,0.3-0.7,0.7v0.7c0,0.4,0.3,0.7,0.7,0.7h1.5c0.1,0.8,0.5,1.6,1,2.3l-1,1
				c-0.3,0.3-0.3,0.7,0,1l0.5,0.5c0.3,0.3,0.7,0.3,1,0l1-1c0.7,0.5,1.5,0.8,2.3,1v1.5c0,0.4,0.3,0.7,0.7,0.7h0.7
				c0.4,0,0.7-0.3,0.7-0.7V31c0.8-0.1,1.6-0.5,2.3-1l1,1c0.3,0.3,0.7,0.3,1,0l0.5-0.5c0.3-0.3,0.3-0.7,0-1l-1-1
				c0.5-0.7,0.8-1.5,1-2.3h1.5c0.4,0,0.7-0.3,0.7-0.7v-0.7c0-0.4-0.3-0.7-0.7-0.7h-1.5c-0.1-0.8-0.5-1.6-1-2.3l1-1
				c0.3-0.3,0.3-0.7,0-1l-0.5-0.5C248.4,19.1,247.9,19.1,247.7,19.3z M246,27.8c-1.5,1.5-3.9,1.5-5.3,0c-1.5-1.5-1.5-3.9,0-5.3
				c1.5-1.5,3.9-1.5,5.3,0C247.4,23.9,247.5,26.3,246,27.8z M242.1,23.9c-0.7,0.7-0.7,1.8,0,2.4c0.7,0.7,1.8,0.7,2.4,0
				c0.7-0.7,0.7-1.8,0-2.4C243.9,23.2,242.8,23.2,242.1,23.9z"/>
		</g>
	</g>
	<g>
		<g>
			<polyline class="st4" points="182.2,35 175.9,41.3 182.2,47.5 			"/>
		</g>
		<line class="st4" x1="190.7" y1="41.3" x2="176.5" y2="41.3"/>
	</g>
	<g>
		<g>
			<polyline class="st4" points="85.9,35 79.7,41.3 85.9,47.5 			"/>
		</g>
		<line class="st4" x1="94.5" y1="41.3" x2="80.3" y2="41.3"/>
	</g>
</g>
</svg>
