<?xml version="1.0" encoding="utf-8"?>
<!-- Generator: Adobe Illustrator 21.1.0, SVG Export Plug-In . SVG Version: 6.00 Build 0)  -->
<svg version="1.1" id="Layer_1" xmlns="http://www.w3.org/2000/svg" xmlns:xlink="http://www.w3.org/1999/xlink" x="0px" y="0px"
	 viewBox="0 0 271.5 82.6" style="enable-background:new 0 0 271.5 82.6;" xml:space="preserve">
<style type="text/css">
	.st0{fill:#0BAFAA;}
	.st1{fill:#FFFFFF;}
	.st2{font-family:'MyriadPro-Bold';}
	.st3{font-size:9.6663px;}
	.st4{fill:none;stroke:#4B4B4C;stroke-width:1.2083;stroke-miterlimit:10;}
</style>
<g>
	<g>
		<circle class="st0" cx="135.7" cy="41.3" r="35.6"/>
		<text transform="matrix(1 0 0 1 116.853 52.3714)" class="st1 st2 st3">SEARCH</text>
		<text transform="matrix(1 0 0 1 111.953 62.0714)" class="st1 st2 st3">PROJECTS</text>
		<g>
			<path class="st1" d="M124.8,17.8c-5.2,2.6-7.3,8.9-4.6,14.1c2.6,5.2,8.9,7.3,14.1,4.7c5.2-2.6,7.2-8.9,4.6-14.1
				C136.3,17.3,130,15.2,124.8,17.8z M133.1,34.4c-4,2-8.8,0.4-10.8-3.5c-2-4-0.4-8.8,3.5-10.8c3.9-2,8.8-0.4,10.8,3.6
				C138.6,27.6,137,32.4,133.1,34.4z"/>
			<path class="st1" d="M151.6,33.1l-13-4.3c0,0.1,0.1,0.2,0,0.3c-0.1,0.5-0.3,1-0.6,1.4c-0.2,0.6-0.4,1.2-0.6,1.7
				c0,0.1-0.1,0.1-0.1,0.2l13,4.3c0.6,0.2,1.3-0.1,1.6-0.8l0.5-1.4C152.6,34.1,152.3,33.4,151.6,33.1z M148.8,33.6l-0.2,0.5
				c-0.1,0.3-0.3,0.4-0.6,0.3l-8.6-2.8c-0.3-0.1-0.4-0.4-0.3-0.6l0.2-0.5c0.1-0.3,0.4-0.4,0.6-0.3l8.6,2.8
				C148.7,33.1,148.8,33.3,148.8,33.6z"/>
		</g>
	</g>
	<g>
		<circle class="st0" cx="231.3" cy="41.3" r="35.6"/>
		<text transform="matrix(1 0 0 1 205.0903 52.3709)" class="st1 st2 st3">APPLY TO</text>
		<text transform="matrix(1 0 0 1 217.4903 62.0709)" class="st1 st2 st3">HELP</text>
		<g>
			<path class="st1" d="M240.5,36.4c-0.1,0.2-0.1,0.5-0.2,0.7c-0.2,0.6-0.5,1.1-0.9,1.6s-0.7,0.8-1.1,0.9c-0.1,0-0.1,0-0.2,0
				c-0.1,0-0.1,0-0.1,0h-10.7c-0.3,0-0.5-0.2-0.7-0.4s-0.4-0.4-0.5-0.7l-3.7-9.3c0-0.1-0.1-0.3-0.1-0.4s0-0.3,0-0.4
				c0-0.4,0.1-0.7,0.2-1c0.2-0.3,0.4-0.6,0.7-0.7c0.1-0.1,0.2-0.1,0.2-0.1c0.1,0,0.2-0.1,0.2-0.1h0.1h0.1c0.3,0,0.6,0.1,0.8,0.3
				c0.3,0.2,0.5,0.5,0.6,0.8l1.4,3.6V21c0-0.5,0.2-1,0.5-1.4s0.7-0.6,1.1-0.6c0.4,0,0.8,0.2,1.2,0.6c0.3,0.4,0.5,0.8,0.5,1.4v9.3
				h0.3v-2.9c0-0.5,0.2-1,0.5-1.4s0.7-0.6,1.1-0.6c0.5,0,0.8,0.2,1.2,0.6c0.3,0.4,0.5,0.8,0.5,1.4v2.9h0.3v-2.9c0-0.5,0.2-1,0.5-1.4
				s0.7-0.6,1.2-0.6c0.4,0,0.8,0.2,1.1,0.6s0.5,0.8,0.5,1.4v2.9h0.3v-1.4c0-0.5,0.2-1,0.5-1.4s0.7-0.6,1.1-0.6
				c0.5,0,0.8,0.2,1.2,0.6c0.3,0.4,0.5,0.8,0.5,1.4v7C240.5,36,240.5,36.2,240.5,36.4z"/>
		</g>
	</g>
	<g>
		<circle class="st0" cx="40.2" cy="41.3" r="35.6"/>
		<text transform="matrix(1 0 0 1 22.0073 51.24)" class="st1 st2 st3">CREATE</text>
		<text transform="matrix(1 0 0 1 20.4073 60.94)" class="st1 st2 st3">PROFILE</text>
		<path class="st1" d="M42.5,24.6c1.5-0.8,2.5-2.4,2.5-4.2c0-2.6-2.1-4.8-4.8-4.8c-2.6,0-4.8,2.1-4.8,4.8c0,1.8,1,3.4,2.5,4.2
			c-4.6,1.1-8,5.5-8,10.7c0,0.8,0.7,1.5,1.5,1.5h17.5c0.8,0,1.5-0.7,1.5-1.5C50.4,30.1,47,25.7,42.5,24.6z"/>
	</g>
	<g>
		<g>
			<polyline class="st4" points="88.2,47.5 94.5,41.3 88.2,35 			"/>
		</g>
		<line class="st4" x1="79.7" y1="41.3" x2="93.9" y2="41.3"/>
	</g>
	<g>
		<g>
			<polyline class="st4" points="184.5,47.5 190.7,41.3 184.5,35 			"/>
		</g>
		<line class="st4" x1="175.9" y1="41.3" x2="190.1" y2="41.3"/>
	</g>
</g>
</svg>
